<?xml version="1.0" encoding="UTF-8" standalone="no"?>
<!-- Created with Inkscape (http://www.inkscape.org/) -->
<svg xmlns:dc="http://purl.org/dc/elements/1.1/" xmlns:cc="http://creativecommons.org/ns#" xmlns:rdf="http://www.w3.org/1999/02/22-rdf-syntax-ns#" xmlns:svg="http://www.w3.org/2000/svg" xmlns="http://www.w3.org/2000/svg" xmlns:sodipodi="http://sodipodi.sourceforge.net/DTD/sodipodi-0.dtd" xmlns:inkscape="http://www.inkscape.org/namespaces/inkscape" width="231.86992mm" height="37.57756mm" viewBox="0 0 821.58633 133.14884" id="svg2" version="1.1">
  <defs id="defs4"/>
  
  <metadata id="metadata7">
    
  </metadata>
  <g id="layer1" transform="translate(50.09931,-352.50764)">
            <g transform="translate(-111.17931,96.296687)" style="font-style:normal;font-variant:normal;font-weight:normal;font-stretch:normal;font-size:40px;line-height:125%;font-family:Amaranth;-inkscape-font-specification:Amaranth;letter-spacing:0px;word-spacing:0px;fill:#ffffff;fill-opacity:1;stroke:none;stroke-width:1px;stroke-linecap:butt;stroke-linejoin:miter;stroke-opacity:1" id="flowRoot3360">
      <path d="m 148.92,332.21656 q -1.26,-3.96 -2.34,-8.1 -0.9,-4.14 -1.8,-7.92 -0.72,-3.78 -1.44,-6.84 -0.54,-3.06 -1.08,-4.86 -0.36,1.8 -1.08,5.22 -0.72,3.42 -1.62,7.38 -0.72,3.96 -1.62,8.1 -0.9,4.14 -1.98,7.56 l -17.1,55.08 -23.94,0 -33.84,-121.86 29.52,0 11.52,45.72 q 1.08,4.14 1.98,8.64 0.9,4.5 1.8,9.18 0.9,4.5 1.62,8.82 0.72,4.14 1.26,7.38 1.44,-6.66 3.42,-16.02 2.16,-9.54 4.68,-17.82 l 13.68,-45.9 24.12,0 14.04,46.26 q 3.06,9.9 4.68,18.9 1.8,8.82 3.24,15.3 0.9,-6.48 2.34,-15.3 1.44,-8.82 3.96,-19.08 l 11.34,-46.08 29.88,0 -33.84,121.86 -23.94,0 -17.46,-55.62 z" style="font-style:normal;font-variant:normal;font-weight:bold;font-stretch:normal;font-family:Amaranth;-inkscape-font-specification:'Amaranth Bold';fill:#ffffff" id="path5133"/>
    </g>
    <g transform="matrix(7.0603992,0,0,7.0603992,111.38619,379.75049)" style="fill:#ffffff;fill-rule:evenodd;stroke:none;stroke-width:1" id="Octicons">
      <g style="fill:#ffffff" id="globe">
        <path d="M 7,1 C 3.14,1 0,4.14 0,8 0,11.86 3.14,15 7,15 7.48,15 7.94,14.95 8.38,14.86 8.21,14.78 8.18,14.13 8.36,13.77 8.55,13.36 9.17,12.32 8.56,11.97 7.95,11.62 8.12,11.47 7.75,11.06 7.38,10.65 7.53,10.59 7.5,10.48 7.42,10.14 7.86,9.59 7.89,9.54 7.91,9.48 7.91,9.27 7.89,9.21 7.89,9.13 7.62,8.99 7.55,8.98 7.49,8.98 7.44,9.09 7.35,9.11 7.26,9.13 6.85,8.86 6.76,8.78 6.67,8.7 6.62,8.55 6.49,8.44 6.36,8.31 6.35,8.41 6.16,8.33 5.97,8.25 5.36,8.02 4.88,7.85 4.4,7.66 4.36,7.38 4.36,7.19 4.34,6.99 4.06,6.72 3.94,6.52 3.8,6.32 3.78,6.05 3.74,6.11 3.7,6.17 3.99,6.89 3.94,6.92 3.89,6.94 3.78,6.72 3.64,6.54 3.5,6.35 3.78,6.45 3.34,5.59 2.9,4.73 3.48,4.29 3.51,3.84 3.54,3.39 3.89,4.01 3.7,3.71 3.51,3.41 3.7,2.82 3.56,2.6 3.43,2.38 2.68,2.85 2.68,2.85 2.7,2.63 3.37,2.27 3.84,1.93 4.31,1.59 4.62,1.87 5,1.98 5.39,2.11 5.41,2.07 5.28,1.93 5.15,1.8 5.34,1.76 5.64,1.8 5.92,1.85 6.02,2.21 6.47,2.16 6.94,2.13 6.52,2.25 6.58,2.38 6.64,2.51 6.52,2.49 6.2,2.68 5.9,2.88 6.22,2.9 6.75,3.29 7.28,3.68 7.13,3.04 7.06,2.74 6.99,2.44 7.45,2.68 7.45,2.68 7.78,2.9 7.72,2.7 7.95,2.76 8.18,2.82 8.86,3.4 8.86,3.4 8.03,3.84 8.55,3.88 8.69,3.99 8.83,4.1 8.41,4.29 8.41,4.29 8.24,4.12 8.22,4.31 8.11,4.37 8,4.43 8.09,4.59 8.09,4.59 7.53,4.68 7.65,5.28 7.67,5.42 7.67,5.56 7.29,5.78 7.2,6 7.11,6.2 7.45,6.64 7.26,6.66 7.07,6.69 6.92,6 5.95,6.25 5.65,6.33 5.01,6.66 5.36,7.33 5.72,8.02 6.28,7.14 6.47,7.24 6.66,7.34 6.41,7.77 6.45,7.79 6.49,7.81 6.98,7.81 7.01,8.4 7.04,8.99 7.78,8.93 7.93,8.95 8.1,8.95 8.63,8.51 8.7,8.5 8.76,8.47 9.08,8.22 9.73,8.59 c 0.66,0.36 0.98,0.31 1.2,0.47 0.22,0.16 0.08,0.47 0.28,0.58 0.2,0.11 1.06,-0.03 1.28,0.31 0.22,0.34 -0.88,2.09 -1.22,2.28 -0.34,0.19 -0.48,0.64 -0.84,0.92 -0.36,0.28 -0.81,0.64 -1.27,0.91 -0.41,0.23 -0.47,0.66 -0.66,0.8 3.14,-0.7 5.48,-3.5 5.48,-6.84 0,-3.86 -3.14,-7 -7,-7 L 7,1 Z M 8.64,7.56 C 8.55,7.59 8.36,7.78 7.86,7.48 7.38,7.18 7.05,7.25 7,7.2 7,7.2 6.95,7.09 7.17,7.06 7.61,7.01 8.15,7.47 8.28,7.47 8.41,7.47 8.47,7.34 8.69,7.42 8.91,7.5 8.74,7.55 8.64,7.56 l 0,0 z M 6.34,1.7 C 6.29,1.67 6.37,1.62 6.43,1.56 6.46,1.53 6.45,1.45 6.48,1.42 6.59,1.31 7.09,1.17 7,1.45 6.89,1.72 6.42,1.75 6.34,1.7 l 0,0 z M 7.57,2.59 C 7.38,2.57 6.99,2.54 7.05,2.45 7.35,2.17 6.96,2.07 6.71,2.07 6.46,2.05 6.37,1.91 6.49,1.88 6.61,1.85 7.1,1.9 7.19,1.96 c 0.08,0.06 0.52,0.25 0.55,0.38 0.02,0.13 0,0.25 -0.17,0.25 l 0,0 z M 9.04,2.54 C 8.9,2.63 8.21,2.13 8.09,2.02 7.53,1.54 7.2,1.71 7.09,1.61 6.98,1.51 7.01,1.42 7.2,1.27 c 0.19,-0.15 0.69,0.06 1,0.09 0.3,0.03 0.66,0.27 0.66,0.55 0.02,0.25 0.33,0.5 0.19,0.63 l -0.01,0 z" id="Shape" style="fill:#ffffff"/>
      </g>
    </g>
    <g transform="translate(2016.366,324.25897)" style="font-style:normal;font-weight:normal;font-size:40px;line-height:125%;font-family:sans-serif;letter-spacing:0px;word-spacing:0px;fill:#ffffff;fill-opacity:1;stroke:none;stroke-width:1px;stroke-linecap:butt;stroke-linejoin:miter;stroke-opacity:1" id="flowRoot3418">
      <path d="m -1744.8318,94.308666 q -1.98,0 -4.32,1.08 -2.34,1.08 -4.5,3.42 -2.16,2.160004 -3.6,5.760004 -1.44,3.42 -1.44,8.28 l 0,45.9 -28.44,0 0,-46.8 q 0,-10.8 -1.62,-17.820004 -1.44,-7.2 -3.42,-11.7 -2.16,-5.04 -4.86,-8.1 l 22.86,-7.2 q 1.44,1.8 3.06,4.14 1.26,1.98 2.7,5.04 1.44,3.06 2.34,7.02 4.5,-8.64 10.62,-12.42 6.3,-3.78 14.76,-3.78 3.78,0 6.66,0.72 3.06,0.54 5.04,1.26 l -7.38,27.18 q -1.26,-0.72 -3.42,-1.26 -1.98,-0.72 -5.04,-0.72 z" style="font-style:normal;font-variant:normal;font-weight:bold;font-stretch:normal;font-family:amaranth;-inkscape-font-specification:'amaranth Bold';fill:#ffffff" id="path5136"/>
      <path d="m -1695.253,159.46867 q -6.3,0 -10.8,-1.8 -4.32,-1.8 -7.38,-4.86 -2.88,-3.24 -4.32,-7.38 -1.26,-4.14 -1.26,-9 l 0,-103.320004 28.44,-4.86 0,102.060004 q 0,4.32 1.44,6.12 1.62,1.62 5.76,1.62 1.98,0 4.32,-0.36 2.52,-0.36 4.5,-0.72 l 2.7,17.82 q -2.7,1.26 -9.18,3.06 -6.3,1.62 -14.22,1.62 z" style="font-style:normal;font-variant:normal;font-weight:bold;font-stretch:normal;font-family:amaranth;-inkscape-font-specification:'amaranth Bold';fill:#ffffff" id="path5138"/>
      <path d="m -1600.6293,160.18867 -1.08,-1.26 q -1.08,-1.08 -2.52,-3.42 -1.44,-2.34 -2.88,-5.58 -1.44,-3.42 -2.16,-7.74 -3.06,8.46 -9,13.14 -5.94,4.5 -15.66,4.5 -8.82,0 -15.48,-3.24 -6.48,-3.24 -10.8,-9 -4.32,-5.94 -6.48,-14.22 -1.98,-8.28 -1.98,-18.36 0,-10.26 3.24,-19.080004 3.42,-8.82 9.36,-15.12 5.94,-6.48 14.22,-10.08 8.28,-3.6 18.36,-3.6 1.62,0 3.42,0.18 1.98,0.18 3.96,0.36 l 0,-39.24 28.44,4.68 0,82.260004 q 0,10.62 1.44,17.82 1.62,7.2 3.42,11.7 1.8,4.32 3.42,6.12 l 1.62,1.98 -22.86,7.2 z m -28.62,-21.24 q 2.7,0 5.04,-2.34 2.52,-2.34 4.32,-6.3 1.8,-3.96 2.7,-9 1.08,-5.22 1.08,-10.98 l 0,-20.880004 q -1.26,-0.54 -3.6,-0.9 -2.16,-0.54 -3.78,-0.54 -4.32,0 -7.2,1.98 -2.88,1.8 -4.68,5.22 -1.62,3.24 -2.34,7.920004 -0.72,4.68 -0.72,10.08 0,5.04 0.18,9.72 0.18,4.5 1.08,8.1 1.08,3.6 2.88,5.76 1.8,2.16 5.04,2.16 z" style="font-style:normal;font-variant:normal;font-weight:bold;font-stretch:normal;font-family:amaranth;-inkscape-font-specification:'amaranth Bold';fill:#ffffff" id="path5140"/>
      <path d="m -1544.8434,159.46867 q -9.54,0 -14.58,-5.58 -5.04,-5.76 -5.04,-14.76 l 0,-70.020004 20.52,0 0,68.220004 q 0,4.14 1.26,5.58 1.26,1.44 3.78,1.44 0.72,0 1.44,0 0.9,0 1.62,-0.18 0.72,0 1.62,-0.18 l 2.16,12.96 q -1.26,0.72 -3.24,1.26 -1.62,0.54 -4.14,0.9 -2.34,0.36 -5.4,0.36 z m -9,-130.320004 q 5.76,0 8.82,3.42 3.06,3.42 3.06,8.82 0,5.4 -3.24,9 -3.06,3.6 -9.18,3.6 -5.76,0 -9,-3.42 -3.06,-3.6 -3.06,-8.64 0,-5.58 3.06,-9.18 3.24,-3.6 9.54,-3.6 z" style="font-style:normal;font-variant:normal;font-weight:normal;font-stretch:normal;font-size:180px;font-family:amaranth;-inkscape-font-specification:amaranth;fill:#ffffff" id="path5142"/>
      <path d="m -1528.2918,69.108666 16.2,0 3.6,-21.06 16.92,-3.78 0,24.84 22.14,0 -2.52,14.58 -19.62,0 0,53.280004 q 0,4.68 2.52,6.12 2.52,1.26 5.58,1.26 2.52,0 5.04,-0.36 2.52,-0.36 4.5,-0.9 2.34,-0.54 4.5,-1.26 l 3.42,13.5 -1.62,0.54 q -1.62,0.72 -4.86,1.62 -3.06,0.72 -7.38,1.26 -4.14,0.72 -9.18,0.72 -5.04,0 -9.36,-1.08 -4.14,-1.08 -7.2,-3.42 -3.06,-2.52 -4.86,-6.3 -1.62,-3.78 -1.62,-9.36 l 0,-55.620004 -16.2,0 0,-14.58 z" style="font-style:normal;font-variant:normal;font-weight:normal;font-stretch:normal;font-size:180px;font-family:amaranth;-inkscape-font-specification:amaranth;fill:#ffffff" id="path5144"/>
      <path d="m -1461.5652,116.08867 q 0,-12.06 3.24,-21.240004 3.42,-9.18 9.18,-15.3 5.94,-6.3 13.86,-9.36 7.92,-3.24 17.1,-3.24 8.1,0 13.68,1.98 5.76,1.98 9.36,5.4 3.6,3.42 5.22,8.1 1.8,4.68 1.8,10.08 0,6.48 -3.6,12.420004 -3.6,5.76 -10.44,10.26 -6.66,4.32 -16.2,7.02 -9.54,2.52 -21.42,2.7 0.54,4.14 1.62,7.92 1.26,3.6 3.42,6.48 2.34,2.7 5.94,4.32 3.6,1.62 9,1.62 3.96,0 8.46,-0.9 4.5,-0.9 8.28,-2.16 4.5,-1.44 8.82,-3.24 l 5.4,12.78 q -4.68,2.34 -10.08,4.14 -4.68,1.62 -10.8,2.88 -6.12,1.26 -12.96,1.26 -10.44,0 -17.82,-3.06 -7.38,-3.24 -12.06,-9 -4.68,-5.76 -6.84,-13.86 -2.16,-8.1 -2.16,-18 z m 41.76,-35.100004 q -5.94,0 -9.9,2.88 -3.78,2.7 -6.12,7.2 -2.34,4.32 -3.42,9.900004 -0.9,5.4 -1.08,10.98 8.64,-0.36 14.58,-2.16 6.12,-1.98 9.9,-4.68 3.78,-2.88 5.4,-6.120004 1.8,-3.24 1.8,-6.48 0,-5.22 -3.06,-8.28 -3.06,-3.24 -8.1,-3.24 z" style="font-style:normal;font-variant:normal;font-weight:normal;font-stretch:normal;font-size:180px;font-family:amaranth;-inkscape-font-specification:amaranth;fill:#ffffff" id="path5146"/>
      <path d="m -1322.4871,90.168666 q -2.7,-3.06 -5.58,-5.22 -2.7,-2.16 -7.38,-2.16 -2.7,0 -6.12,0.9 -3.24,0.72 -6.12,3.96 -2.88,3.06 -4.86,9.18 -1.8,6.120004 -1.8,16.560004 0,10.62 1.8,16.92 1.98,6.12 4.86,9.54 3.06,3.42 6.48,4.5 3.42,0.9 6.66,0.9 2.52,0 5.22,-0.36 2.7,-0.54 5.22,-1.08 2.52,-0.72 4.32,-1.26 1.98,-0.54 2.88,-0.9 l 5.04,12.96 q -0.54,0.18 -2.52,1.08 -1.8,0.9 -5.04,1.8 -3.24,0.9 -7.74,1.62 -4.5,0.9 -10.08,0.9 -10.44,0 -17.82,-3.06 -7.38,-3.24 -12.24,-9 -4.68,-5.76 -7.02,-13.86 -2.16,-8.1 -2.16,-18 0,-11.88 3.06,-21.060004 3.24,-9.18 8.82,-15.3 5.58,-6.3 13.14,-9.54 7.56,-3.24 16.2,-3.24 8.46,0 14.22,3.24 5.94,3.24 10.08,9 l -11.52,10.98 z" style="font-style:normal;font-variant:normal;font-weight:normal;font-stretch:normal;font-size:180px;font-family:amaranth;-inkscape-font-specification:amaranth;fill:#ffffff" id="path5148"/>
      <path d="m -1307.159,69.108666 16.2,0 3.6,-21.06 16.92,-3.78 0,24.84 22.14,0 -2.52,14.58 -19.62,0 0,53.280004 q 0,4.68 2.52,6.12 2.52,1.26 5.58,1.26 2.52,0 5.04,-0.36 2.52,-0.36 4.5,-0.9 2.34,-0.54 4.5,-1.26 l 3.42,13.5 -1.62,0.54 q -1.62,0.72 -4.86,1.62 -3.06,0.72 -7.38,1.26 -4.14,0.72 -9.18,0.72 -5.04,0 -9.36,-1.08 -4.14,-1.08 -7.2,-3.42 -3.06,-2.52 -4.86,-6.3 -1.62,-3.78 -1.62,-9.36 l 0,-55.620004 -16.2,0 0,-14.58 z" style="font-style:normal;font-variant:normal;font-weight:normal;font-stretch:normal;font-size:180px;font-family:amaranth;-inkscape-font-specification:amaranth;fill:#ffffff" id="path5150"/>
    </g>
  </g>
</svg>
